# xmcd
#
# Track frame offsets: 
#        150
#        12947
#        26875
#        38602
#        50120
#        61512
#        74787
#        86380
#        100510
#        114475
#        127635
#        141005
#        152815
#        164712
#        176585
#        189675
#        203487
#        214440
#        226512
#        239360
#        251577
#        265182
#        277145
#        289167
#        300552
#        314625
#        327517
#
# Disc length: 4534 seconds
#
# Revision: 5
# Processed by: cddbd v1.5.2PL0 Copyright (c) Steve Scherf et al.
# Submitted via: ExactAudioCopy v1.1
#
DISCID=8811b41b
DTITLE=Various Artist - Mercury Blues 'N' Rhythm Story 1945-1955 - Di
DTITLE=sc 5
DYEAR=1996
DGENRE=R&B
TTITLE0=Jay McShann with Jimmy Witherspoon - Ernestine (mono)
TTITLE1=Jay McShann with Jimmy Witherspoon - Roll On Katy (mono)
TTITLE2=Jay McShann with Jimmy Witherspoon - Voodoo Woman Blues (mono)
TTITLE3=Jay McShann with Jimmy Witherspoon - I Want A Little Girl (mon
TTITLE3=o)
TTITLE4=Jay McShann with Jimmy Witherspoon - Bar Fly Blues (mono)
TTITLE5=Jay McShann with Jimmy Witherspoon - Please Stop Playing These
TTITLE5=Blues, Boy (mono)
TTITLE6=Jay McShann with Jimmy Witherspoon - All My Geets Are Gone (mo
TTITLE6=no)
TTITLE7=Jay McShann with Jimmy Witherspoon - Strange Woman Blues (mono
TTITLE7=)
TTITLE8=Vivian Greene - Bowlegged Boogie (mono)
TTITLE9=Vivian Greene - He's The Man (He's Tall And Cool) (mono)
TTITLE10=Vivian Greene - Red Light (mono)
TTITLE11=Smiley Turner - When A Man Has The Blues (mono)
TTITLE12=Smiley Turner - Lonely Boy Blues (mono)
TTITLE13=Billy Valentine - Beer Drinking Baby (mono)
TTITLE14=Chuck Norris - What's Good For One's Good For All (mono)
TTITLE15=Chuck Norris - Kinda Sick, Mostly Worried (mono)
TTITLE16=Chuck Norris - Hey Everybody (mono)
TTITLE17=Frankie Ervin - I'd Rather Be Like A Hermit (mono)
TTITLE18=Frankie Ervin - High School Baby (mono)
TTITLE19=Big Jim Wynn and His Band - West Coast Lover (mono)
TTITLE20=Big Jim Wynn and His Band - Dog House Blues (mono)
TTITLE21=Meredith Howard - Just Kiss Me Once (And You'll Be Back) (mon
TTITLE21=o)
TTITLE22=Ike Lloyd - Worrying Blues (mono)
TTITLE23=Ike Lloyd - Boogie On The 88 (mono)
TTITLE24=Ike Lloyd - I Only Want Your Love (mono)
TTITLE25=J.D. Edwards - West Coast Blues (mono)
TTITLE26=Red Johnson and His Orchestra - Mama Does The Boogie (Washingto
TTITLE26=n Ave. Boogie) (mono)
EXTD=8CD: Mercury 314 528 292-2 (1996-09-24), UPC 731452829221.
EXTT0=
EXTT1=
EXTT2=
EXTT3=
EXTT4=
EXTT5=
EXTT6=
EXTT7=
EXTT8=
EXTT9=
EXTT10=
EXTT11=
EXTT12=
EXTT13=
EXTT14=
EXTT15=
EXTT16=
EXTT17=
EXTT18=
EXTT19=
EXTT20=
EXTT21=
EXTT22=
EXTT23=
EXTT24=
EXTT25=
EXTT26=
PLAYORDER=
